# Blender v2.79 (sub 0) OBJ File: ''
# www.blender.org
mtllib Berry.mtl
o Cylinder
v 5.284066 -0.946977 1.367800
v 5.235994 0.033501 1.544743
v 5.365011 -0.947860 1.394105
v 5.326080 0.045678 1.562313
v 5.415705 -0.958177 1.463526
v 5.386921 0.072276 1.638930
v 5.416785 -0.973987 1.549545
v 5.449202 0.144625 1.775416
v 5.367838 -0.989250 1.619307
v 5.405436 0.257103 1.927990
v 5.287561 -0.998138 1.646165
v 5.238048 0.015626 1.884744
v 5.206616 -0.997255 1.619860
v 5.047864 0.239350 1.929217
v 5.155922 -0.986938 1.550440
v 5.014412 0.123039 1.776907
v 5.154842 -0.971128 1.464420
v 5.082617 0.057168 1.639974
v 5.203789 -0.955864 1.394658
v 5.145267 0.036701 1.562933
vn 0.2335 0.1774 -0.9560
vn 0.7810 0.1298 -0.6109
vn 0.9569 0.0517 -0.2856
vn 0.8957 -0.1231 0.4273
vn 0.1702 -0.2311 0.9579
vn -0.1399 -0.2465 0.9590
vn -0.8761 -0.2111 0.4334
vn -0.9593 -0.0434 -0.2791
vn -0.0486 0.9593 -0.2781
vn -0.7941 0.0516 -0.6055
vn -0.2565 0.1531 -0.9543
vn 0.0481 -0.9823 -0.1811
usemtl None
s off
f 1//1 2//1 4//1 3//1
f 3//2 4//2 6//2 5//2
f 5//3 6//3 8//3 7//3
f 7//4 8//4 10//4 9//4
f 9//5 10//5 12//5 11//5
f 11//6 12//6 14//6 13//6
f 13//7 14//7 16//7 15//7
f 15//8 16//8 18//8 17//8
f 4//9 2//9 20//9 18//9 16//9 14//9 12//9 10//9 8//9 6//9
f 17//10 18//10 20//10 19//10
f 19//11 20//11 2//11 1//11
f 1//12 3//12 5//12 7//12 9//12 11//12 13//12 15//12 17//12 19//12
o Icosphere
v 5.385947 -2.771132 1.573419
v 6.109554 -2.062280 2.099145
v 5.109559 -2.062280 2.424068
v 4.491520 -2.062276 1.573419
v 5.109559 -2.062280 0.722770
v 6.109554 -2.062280 1.047694
v 5.662335 -1.167840 2.424068
v 4.662339 -1.167841 2.099145
v 4.662339 -1.167841 1.047694
v 5.662335 -1.167840 0.722770
v 6.280373 -1.167845 1.573419
v 5.385947 -0.962842 1.573419
v 5.339062 -2.465715 2.073415
v 5.811269 -2.465714 1.882431
v 5.784650 -2.147564 2.368121
v 6.236595 -2.140796 1.573419
v 5.819073 -2.439132 1.296245
v 4.860217 -2.465712 1.573419
v 4.697757 -2.140797 2.073416
v 5.223491 -2.465715 1.073424
v 4.697757 -2.140797 1.073422
v 5.648816 -2.140798 0.764408
v 6.337005 -1.615060 1.882432
v 6.337005 -1.615060 1.264407
v 5.385947 -1.615060 2.573419
v 5.973732 -1.615060 2.382436
v 4.434889 -1.615060 1.882432
v 4.798161 -1.615060 2.382436
v 4.798161 -1.615060 0.764403
v 4.434889 -1.615060 1.264407
v 5.973732 -1.615060 0.764403
v 5.385947 -1.615060 0.573419
v 6.074136 -1.089324 2.073416
v 5.123078 -1.089323 2.382431
v 4.535299 -1.089324 1.573419
v 5.123078 -1.089323 0.764408
v 6.074136 -1.089324 1.073422
v 5.548402 -0.839897 2.073415
v 5.911676 -0.804875 1.573419
v 4.960624 -0.928869 1.882431
v 4.960624 -0.857667 1.264408
v 5.548402 -0.860463 1.073424
vn 0.2119 -0.8250 0.5238
vn 0.7002 -0.6617 0.2680
vn -0.4527 -0.7792 0.4335
vn -0.4719 -0.8123 -0.3428
vn 0.2456 -0.7897 -0.5622
vn 0.9050 -0.3304 0.2680
vn 0.0355 -0.3362 0.9411
vn -0.8897 -0.3304 0.3151
vn -0.5746 -0.3304 -0.7488
vn 0.5346 -0.3304 -0.7779
vn 0.8026 -0.1256 0.5831
vn -0.3066 -0.1256 0.9435
vn -0.9921 -0.1256 0.0000
vn -0.3066 -0.1256 -0.9435
vn 0.8026 -0.1256 -0.5831
vn 0.3502 0.7382 0.5766
vn -0.3840 0.8356 0.3929
vn -0.6000 0.7573 -0.2581
vn 0.0608 0.7603 -0.6467
vn 0.6908 0.7017 -0.1747
vn -0.2863 0.9527 0.1021
vn 0.3716 0.8537 -0.3649
vn 0.3310 0.7603 -0.5589
vn 0.0774 0.9715 0.2241
vn -0.1433 0.8794 -0.4540
vn -0.4308 0.7573 -0.4908
vn 0.1604 0.9806 0.1130
vn -0.4163 0.9032 0.1041
vn -0.4923 0.8356 0.2438
vn -0.0778 0.9737 -0.2141
vn -0.2553 0.8934 0.3697
vn 0.0556 0.7382 0.6723
vn -0.2849 0.9482 -0.1406
vn 0.4014 0.8460 0.3509
vn 0.6908 0.7017 0.1747
vn 0.8897 0.3304 -0.3151
vn 0.7947 0.1876 -0.5773
vn 0.5746 0.3304 -0.7488
vn -0.0247 0.3304 -0.9435
vn -0.3035 0.1876 -0.9342
vn -0.5346 0.3304 -0.7779
vn -0.9050 0.3304 -0.2680
vn -0.9822 0.1876 0.0000
vn -0.9050 0.3304 0.2680
vn -0.5346 0.3304 0.7779
vn -0.3035 0.1876 0.9342
vn -0.0247 0.3304 0.9435
vn 0.5746 0.3304 0.7488
vn 0.7947 0.1876 0.5773
vn 0.8897 0.3304 0.3151
vn 0.3066 0.1256 -0.9435
vn 0.3035 -0.1876 -0.9342
vn 0.0247 -0.3304 -0.9435
vn -0.8026 0.1256 -0.5831
vn -0.7947 -0.1876 -0.5773
vn -0.8897 -0.3304 -0.3151
vn -0.8026 0.1256 0.5831
vn -0.7947 -0.1876 0.5773
vn -0.5746 -0.3304 0.7488
vn 0.3066 0.1256 0.9435
vn 0.3062 -0.1341 0.9425
vn 0.6555 -0.2519 0.7119
vn 0.9921 0.1256 0.0000
vn 0.9822 -0.1876 0.0000
vn 0.9050 -0.3304 -0.2680
vn 0.4538 -0.7073 -0.5420
vn 0.2352 -0.8136 -0.5317
vn -0.0385 -0.6617 -0.7488
vn -0.4089 -0.6617 -0.6284
vn -0.4911 -0.7947 -0.3568
vn -0.7240 -0.6617 -0.1947
vn -0.7240 -0.6617 0.1947
vn -0.4148 -0.8186 0.3972
vn -0.3649 -0.7203 0.5899
vn 0.6710 -0.6923 -0.2655
vn 0.5936 -0.8042 -0.0286
vn 0.5966 -0.8020 -0.0284
vn -0.0217 -0.6629 0.7484
vn 0.2196 -0.8105 0.5430
vn 0.5681 -0.6738 0.4725
usemtl None
s off
f 21//13 34//13 33//13
f 22//14 34//14 36//14
f 21//15 33//15 38//15
f 21//16 38//16 40//16
f 21//17 40//17 37//17
f 22//18 36//18 43//18
f 23//19 35//19 45//19
f 24//20 39//20 47//20
f 25//21 41//21 49//21
f 26//22 42//22 51//22
f 22//23 43//23 46//23
f 23//24 45//24 48//24
f 24//25 47//25 50//25
f 25//26 49//26 52//26
f 26//27 51//27 44//27
f 27//28 53//28 58//28
f 28//29 54//29 60//29
f 29//30 55//30 61//30
f 30//31 56//31 62//31
f 31//32 57//32 59//32
f 59//33 62//33 32//33
f 59//34 57//34 62//34
f 57//35 30//35 62//35
f 62//36 61//36 32//36
f 62//37 56//37 61//37
f 56//38 29//38 61//38
f 61//39 60//39 32//39
f 61//40 55//40 60//40
f 55//41 28//41 60//41
f 60//42 58//42 32//42
f 60//43 54//43 58//43
f 54//44 27//44 58//44
f 58//45 59//45 32//45
f 58//46 53//46 59//46
f 53//47 31//47 59//47
f 44//48 57//48 31//48
f 44//49 51//49 57//49
f 51//50 30//50 57//50
f 52//51 56//51 30//51
f 52//52 49//52 56//52
f 49//53 29//53 56//53
f 50//54 55//54 29//54
f 50//55 47//55 55//55
f 47//56 28//56 55//56
f 48//57 54//57 28//57
f 48//58 45//58 54//58
f 45//59 27//59 54//59
f 46//60 53//60 27//60
f 46//61 43//61 53//61
f 43//62 31//62 53//62
f 51//63 52//63 30//63
f 51//64 42//64 52//64
f 42//65 25//65 52//65
f 49//66 50//66 29//66
f 49//67 41//67 50//67
f 41//68 24//68 50//68
f 47//69 48//69 28//69
f 47//70 39//70 48//70
f 39//71 23//71 48//71
f 45//72 46//72 27//72
f 45//73 35//73 46//73
f 35//74 22//74 46//74
f 43//75 44//75 31//75
f 43//76 36//76 44//76
f 36//77 26//77 44//77
f 37//78 42//78 26//78
f 37//79 40//79 42//79
f 40//80 25//80 42//80
f 40//81 41//81 25//81
f 40//82 38//82 41//82
f 38//83 24//83 41//83
f 38//84 39//84 24//84
f 38//85 33//85 39//85
f 33//86 23//86 39//86
f 36//87 37//87 26//87
f 36//88 34//88 37//88
f 34//89 21//89 37//89
f 33//90 35//90 23//90
f 33//91 34//91 35//91
f 34//92 22//92 35//92
o Cylinder.001
v 5.415805 -0.954923 1.346848
v 5.470631 -0.556163 1.183065
v 5.451428 -0.955655 1.357115
v 5.519672 -0.553417 1.164896
v 5.475110 -0.947465 1.385303
v 5.598968 -0.507174 1.157569
v 5.477806 -0.933483 1.420647
v 5.640520 -0.463692 1.217048
v 5.458486 -0.919049 1.449645
v 5.580815 -0.396380 1.278655
v 5.424529 -0.909675 1.461221
v 5.483459 -0.484597 1.312409
v 5.388906 -0.908944 1.450954
v 5.414032 -0.372158 1.281795
v 5.365224 -0.917133 1.422766
v 5.335423 -0.419384 1.222792
v 5.362528 -0.931116 1.387423
v 5.360673 -0.472568 1.162055
v 5.381848 -0.945550 1.358425
v 5.423761 -0.539488 1.166702
vn -0.0760 -0.3952 -0.9155
vn 0.4108 -0.4800 -0.7751
vn 0.9056 -0.3771 -0.1940
vn 0.7640 0.0239 0.6448
vn 0.1522 0.2897 0.9449
vn -0.0286 0.3160 0.9483
vn -0.7014 0.2367 0.6724
vn -0.9820 -0.1030 -0.1585
vn 0.0939 0.7339 -0.6727
vn -0.5586 -0.3393 -0.7569
vn -0.0733 -0.3956 -0.9155
vn -0.1264 -0.9191 0.3732
usemtl None
s off
f 63//93 64//93 66//93 65//93
f 65//94 66//94 68//94 67//94
f 67//95 68//95 70//95 69//95
f 69//96 70//96 72//96 71//96
f 71//97 72//97 74//97 73//97
f 73//98 74//98 76//98 75//98
f 75//99 76//99 78//99 77//99
f 77//100 78//100 80//100 79//100
f 66//101 64//101 82//101 80//101 78//101 76//101 74//101 72//101 70//101 68//101
f 79//102 80//102 82//102 81//102
f 81//103 82//103 64//103 63//103
f 63//104 65//104 67//104 69//104 71//104 73//104 75//104 77//104 79//104 81//104
