# Blender v2.79 (sub 0) OBJ File: ''
# www.blender.org
mtllib Log.mtl
o Cylinder.002_Cylinder.004
v 0.000000 -1.029486 -0.860000
v 0.000000 1.700514 -0.860000
v 0.505495 -1.029486 -0.695755
v 0.505495 1.700514 -0.695755
v 0.817909 -1.029486 -0.265755
v 0.817909 1.700514 -0.265755
v 0.817909 -1.029486 0.265755
v 0.817909 1.700514 0.265755
v 0.505495 -1.029486 0.695755
v 0.505495 1.700514 0.695755
v -0.000000 -1.029486 0.860000
v -0.000000 1.700514 0.860000
v -0.505495 -1.029486 0.695755
v -0.505495 1.700514 0.695755
v -0.817909 -1.029486 0.265755
v -0.817909 1.700514 0.265755
v -0.817909 -1.029486 -0.265755
v -0.817909 1.700514 -0.265755
v -0.505495 -1.029486 -0.695755
v -0.505495 1.700514 -0.695755
vn 0.3090 0.0000 -0.9511
vn 0.8090 0.0000 -0.5878
vn 1.0000 0.0000 0.0000
vn 0.8090 0.0000 0.5878
vn 0.3090 0.0000 0.9511
vn -0.3090 0.0000 0.9511
vn -0.8090 0.0000 0.5878
vn -1.0000 0.0000 0.0000
vn 0.0000 1.0000 0.0000
vn -0.8090 0.0000 -0.5878
vn -0.3090 0.0000 -0.9511
vn 0.0000 -1.0000 -0.0000
usemtl None
s off
f 1//1 2//1 4//1 3//1
f 3//2 4//2 6//2 5//2
f 5//3 6//3 8//3 7//3
f 7//4 8//4 10//4 9//4
f 9//5 10//5 12//5 11//5
f 11//6 12//6 14//6 13//6
f 13//7 14//7 16//7 15//7
f 15//8 16//8 18//8 17//8
f 4//9 2//9 20//9 18//9 16//9 14//9 12//9 10//9 8//9 6//9
f 17//10 18//10 20//10 19//10
f 19//11 20//11 2//11 1//11
f 1//12 3//12 5//12 7//12 9//12 11//12 13//12 15//12 17//12 19//12
o Cylinder.001_Cylinder.003
v 0.000000 -1.030867 -0.890197
v 0.000000 1.701895 -0.890197
v 0.523245 -1.030867 -0.720185
v 0.523245 1.701895 -0.720185
v 0.846628 -1.030867 -0.275086
v 0.846628 1.701895 -0.275086
v 0.846628 -1.030867 0.275086
v 0.846628 1.701895 0.275086
v 0.523245 -1.030867 0.720185
v 0.523245 1.701895 0.720185
v -0.000000 -1.030867 0.890197
v -0.000000 1.701895 0.890197
v -0.523245 -1.030867 0.720184
v -0.523245 1.701895 0.720184
v -0.846628 -1.030867 0.275086
v -0.846628 1.701895 0.275086
v -0.846628 -1.030867 -0.275086
v -0.846628 1.701895 -0.275086
v -0.523244 -1.030867 -0.720185
v -0.523244 1.701895 -0.720185
vn 0.3090 0.0000 -0.9511
vn 0.8090 0.0000 -0.5878
vn 1.0000 0.0000 0.0000
vn 0.8090 0.0000 0.5878
vn 0.3090 0.0000 0.9511
vn -0.3090 0.0000 0.9511
vn -0.8090 0.0000 0.5878
vn -1.0000 0.0000 0.0000
vn -0.8090 0.0000 -0.5878
vn -0.3090 0.0000 -0.9511
usemtl None
s off
f 21//13 22//13 24//13 23//13
f 23//14 24//14 26//14 25//14
f 25//15 26//15 28//15 27//15
f 27//16 28//16 30//16 29//16
f 29//17 30//17 32//17 31//17
f 31//18 32//18 34//18 33//18
f 33//19 34//19 36//19 35//19
f 35//20 36//20 38//20 37//20
f 37//21 38//21 40//21 39//21
f 39//22 40//22 22//22 21//22
